<svg id="Layer_1" data-name="Layer 1" xmlns="http://www.w3.org/2000/svg" xmlns:xlink="http://www.w3.org/1999/xlink" viewBox="0 0 960 889"><defs><style>.cls-1{fill:none;clip-rule:evenodd;}.cls-2{clip-path:url(#clip-path);}.cls-3{fill:url(#linear-gradient);}.cls-4{clip-path:url(#clip-path-2);}.cls-5{fill:url(#linear-gradient-2);}.cls-6{clip-path:url(#clip-path-3);}.cls-7{fill:url(#linear-gradient-3);}.cls-8{clip-path:url(#clip-path-4);}.cls-9{fill:url(#linear-gradient-4);}</style><clipPath id="clip-path"><path class="cls-1" d="M452.09,362.77l57.71.68a5.48,5.48,0,0,1,5.4,5.52l-.48,40.17,40.16.47a5.47,5.47,0,0,1,5.4,5.52l-.68,57.71a5.48,5.48,0,0,1-5.53,5.4l-40.16-.47-.47,40.16a5.47,5.47,0,0,1-5.53,5.39l-57.71-.68a5.47,5.47,0,0,1-5.39-5.52l.47-40.17-40.16-.47a5.48,5.48,0,0,1-5.4-5.52l.68-57.71a5.49,5.49,0,0,1,5.53-5.4l40.16.47.47-40.16a5.48,5.48,0,0,1,5.53-5.39"/></clipPath><linearGradient id="linear-gradient" x1="455.27" y1="551.31" x2="503.28" y2="341.1" gradientUnits="userSpaceOnUse"><stop offset="0" stop-color="#1e1d44"/><stop offset="1" stop-color="#47b9e8"/></linearGradient><clipPath id="clip-path-2"><path class="cls-1" d="M381.28,634.82c50.06,26,67,59.44,73.68,72.71,4.18-51.85-1.13-84.94-23.21-126.6-33.63-63.39-83.55-63.24-100.21-92.8-16.94-16.79-41.38-14.15-42.85-4.68,5.7,14.51,11.26,25,22.45,37.9q27.8,32.1,28.32,47.9c-2.62-8.86-21-23.11-39.59-42.13C276.59,505.9,251,461.28,241.4,435.41c-6.19-16.6-31.45-23.46-33.83-10.5,3.28,31,29.44,78.48,52.05,125.1,22.77,46.93,59.63,64.49,121.66,84.81"/></clipPath><linearGradient id="linear-gradient-2" x1="236.61" y1="256.53" x2="436.48" y2="882.94" gradientUnits="userSpaceOnUse"><stop offset="0" stop-color="#3f75b9"/><stop offset="1" stop-color="#009b39"/></linearGradient><clipPath id="clip-path-3"><path class="cls-1" d="M578.72,634.82c-50.05,26-67,59.44-73.68,72.71-4.18-51.85,1.13-84.94,23.21-126.6,33.63-63.39,83.55-63.24,100.21-92.8,16.94-16.79,41.38-14.15,42.86-4.68-5.71,14.51-11.27,25-22.46,37.9q-27.79,32.1-28.32,47.9c2.62-8.86,21-23.11,39.59-42.13,23.29-21.22,48.84-65.84,58.47-91.71,6.19-16.6,31.44-23.46,33.83-10.5-3.28,31-29.44,78.48-52,125.1-22.77,46.93-59.63,64.49-121.66,84.81"/></clipPath><linearGradient id="linear-gradient-3" x1="530.16" y1="257.36" x2="730.04" y2="883.77" xlink:href="#linear-gradient-2"/><clipPath id="clip-path-4"><polygon class="cls-1" points="480.94 181.47 589.55 293.42 698.15 405.37 623.5 405.37 589.55 370.38 480.94 258.43 372.34 370.38 338.39 405.37 263.73 405.37 338.08 328.74 335.01 328.74 335.01 239.01 392.43 239.01 392.43 272.71 480.94 181.47"/></clipPath><linearGradient id="linear-gradient-4" x1="463.44" y1="450.6" x2="497.42" y2="145.48" xlink:href="#linear-gradient"/></defs><g class="cls-2"><rect class="cls-3" x="399.69" y="362.73" width="160.63" height="160.63"/></g><g class="cls-4"><rect class="cls-5" x="207.57" y="411.95" width="251.56" height="295.58"/></g><g class="cls-6"><rect class="cls-7" x="500.86" y="411.95" width="251.57" height="295.58"/></g><g class="cls-8"><rect class="cls-9" x="263.73" y="181.47" width="434.42" height="223.9"/></g></svg>